<svg width="288" height="44" viewBox="0 0 288 44" fill="none" xmlns="http://www.w3.org/2000/svg">
<path d="M46.088 7.736C48.776 7.736 51.1653 8.29067 53.256 9.4C55.3893 10.4667 57.0533 12.1307 58.248 14.392C59.4853 16.6533 60.104 19.576 60.104 23.16V43H47.944V25.144C47.944 22.6693 47.4747 20.8773 46.536 19.768C45.5973 18.616 44.3173 18.04 42.696 18.04C41.544 18.04 40.4987 18.3173 39.56 18.872C38.6213 19.4267 37.896 20.28 37.384 21.432C36.872 22.5413 36.616 23.992 36.616 25.784V43H24.456V25.144C24.456 22.6693 23.9867 20.8773 23.048 19.768C22.152 18.616 20.872 18.04 19.208 18.04C18.0133 18.04 16.9467 18.3173 16.008 18.872C15.112 19.4267 14.3867 20.28 13.832 21.432C13.32 22.5413 13.064 23.992 13.064 25.784V43H0.904V8.312H12.488V17.976L10.184 15.224C11.464 12.7493 13.2133 10.8933 15.432 9.656C17.6507 8.376 20.1253 7.736 22.856 7.736C25.9707 7.736 28.7013 8.54667 31.048 10.168C33.4373 11.7467 35.0373 14.2213 35.848 17.592L31.88 16.76C33.1173 13.944 34.9733 11.7467 37.448 10.168C39.9653 8.54667 42.8453 7.736 46.088 7.736ZM85.6245 43.576C81.8272 43.576 78.4565 42.808 75.5125 41.272C72.5685 39.736 70.2432 37.624 68.5365 34.936C66.8725 32.2053 66.0405 29.0907 66.0405 25.592C66.0405 22.0933 66.8725 19 68.5365 16.312C70.2432 13.624 72.5685 11.5333 75.5125 10.04C78.4565 8.504 81.8272 7.736 85.6245 7.736C89.4218 7.736 92.7925 8.504 95.7365 10.04C98.7232 11.5333 101.049 13.624 102.713 16.312C104.377 19 105.209 22.0933 105.209 25.592C105.209 29.0907 104.377 32.2053 102.713 34.936C101.049 37.624 98.7232 39.736 95.7365 41.272C92.7925 42.808 89.4218 43.576 85.6245 43.576ZM85.6245 33.912C87.0325 33.912 88.2698 33.592 89.3365 32.952C90.4458 32.312 91.3205 31.3733 91.9605 30.136C92.6005 28.856 92.9205 27.3413 92.9205 25.592C92.9205 23.8427 92.6005 22.3707 91.9605 21.176C91.3205 19.9387 90.4458 19 89.3365 18.36C88.2698 17.72 87.0325 17.4 85.6245 17.4C84.2592 17.4 83.0218 17.72 81.9125 18.36C80.8458 19 79.9712 19.9387 79.2885 21.176C78.6485 22.3707 78.3285 23.8427 78.3285 25.592C78.3285 27.3413 78.6485 28.856 79.2885 30.136C79.9712 31.3733 80.8458 32.312 81.9125 32.952C83.0218 33.592 84.2592 33.912 85.6245 33.912ZM241.809 7.736C244.497 7.736 246.929 8.29067 249.104 9.4C251.281 10.4667 252.987 12.1307 254.225 14.392C255.505 16.6533 256.145 19.576 256.145 23.16V43H243.985V25.144C243.985 22.6693 243.473 20.8773 242.449 19.768C241.467 18.616 240.081 18.04 238.289 18.04C237.009 18.04 235.835 18.3387 234.769 18.936C233.702 19.4907 232.87 20.3653 232.273 21.56C231.675 22.7547 231.377 24.312 231.377 26.232V43H219.217V8.312H230.801V18.168L228.561 15.288C229.883 12.7707 231.697 10.8933 234.001 9.656C236.305 8.376 238.907 7.736 241.809 7.736ZM279.267 43.576C274.83 43.576 271.374 42.488 268.899 40.312C266.424 38.0933 265.187 34.7653 265.187 30.328V0.567997H277.347V30.2C277.347 31.4373 277.688 32.4187 278.371 33.144C279.054 33.8267 279.928 34.168 280.995 34.168C282.446 34.168 283.683 33.8053 284.707 33.08L287.715 41.592C286.691 42.2747 285.432 42.7653 283.939 43.064C282.446 43.4053 280.888 43.576 279.267 43.576ZM260.131 18.68V9.592H285.283V18.68H260.131Z" fill="#1A1A1A"/>
<path d="M156.026 7.736C158.714 7.736 161.103 8.29067 163.194 9.4C165.327 10.4667 166.991 12.1307 168.186 14.392C169.423 16.6533 170.042 19.576 170.042 23.16V43H157.882V25.144C157.882 22.6693 157.412 20.8773 156.474 19.768C155.535 18.616 154.255 18.04 152.634 18.04C151.482 18.04 150.436 18.3173 149.498 18.872C148.559 19.4267 147.834 20.28 147.322 21.432C146.81 22.5413 146.554 23.992 146.554 25.784V43H134.394V25.144C134.394 22.6693 133.924 20.8773 132.986 19.768C132.09 18.616 130.81 18.04 129.146 18.04C127.951 18.04 126.884 18.3173 125.946 18.872C125.05 19.4267 124.324 20.28 123.77 21.432C123.258 22.5413 123.002 23.992 123.002 25.784V43H110.842V8.312H122.426V17.976L120.122 15.224C121.402 12.7493 123.151 10.8933 125.37 9.656C127.588 8.376 130.063 7.736 132.794 7.736C135.908 7.736 138.639 8.54667 140.986 10.168C143.375 11.7467 144.975 14.2213 145.786 17.592L141.818 16.76C143.055 13.944 144.911 11.7467 147.386 10.168C149.903 8.54667 152.783 7.736 156.026 7.736ZM196.33 43.576C192.234 43.576 188.65 42.808 185.578 41.272C182.549 39.6933 180.181 37.56 178.474 34.872C176.81 32.1413 175.978 29.048 175.978 25.592C175.978 22.136 176.789 19.064 178.41 16.376C180.074 13.6453 182.357 11.5333 185.258 10.04C188.159 8.504 191.423 7.736 195.05 7.736C198.463 7.736 201.578 8.44 204.394 9.848C207.21 11.2133 209.45 13.24 211.114 15.928C212.778 18.616 213.61 21.88 213.61 25.72C213.61 26.1467 213.589 26.6373 213.546 27.192C213.503 27.7467 213.461 28.2587 213.418 28.728H185.962V22.328H206.954L202.346 24.12C202.389 22.5413 202.09 21.176 201.45 20.024C200.853 18.872 199.999 17.976 198.89 17.336C197.823 16.696 196.565 16.376 195.114 16.376C193.663 16.376 192.383 16.696 191.274 17.336C190.207 17.976 189.375 18.8933 188.778 20.088C188.181 21.24 187.882 22.6053 187.882 24.184V26.04C187.882 27.7467 188.223 29.2187 188.906 30.456C189.631 31.6933 190.655 32.6533 191.978 33.336C193.301 33.976 194.879 34.296 196.714 34.296C198.421 34.296 199.871 34.0613 201.066 33.592C202.303 33.08 203.519 32.312 204.714 31.288L211.114 37.944C209.45 39.7787 207.402 41.1867 204.97 42.168C202.538 43.1067 199.658 43.576 196.33 43.576Z" fill="#FF2929"/>
</svg>
